<svg xmlns="http://www.w3.org/2000/svg" viewBox="0 0 32 32">
  <rect width="32" height="32" rx="8" fill="#6366f1"/>

  <!-- Left person pin -->
  <circle cx="10" cy="9" r="2.5" fill="white"/>
  <path d="M10 13 C7 13 5.5 14.5 5.5 16.5 L5.5 18 L14.5 18 L14.5 16.5 C14.5 14.5 13 13 10 13Z" fill="white"/>

  <!-- Right person pin -->
  <circle cx="22" cy="9" r="2.5" fill="white"/>
  <path d="M22 13 C19 13 17.5 14.5 17.5 16.5 L17.5 18 L26.5 18 L26.5 16.5 C26.5 14.5 25 13 22 13Z" fill="white"/>

  <!-- Converging arrows pointing to centre dot -->
  <line x1="10" y1="20" x2="15" y2="25" stroke="white" stroke-width="1.8" stroke-linecap="round"/>
  <line x1="22" y1="20" x2="17" y2="25" stroke="white" stroke-width="1.8" stroke-linecap="round"/>

  <!-- Centre meeting point -->
  <circle cx="16" cy="26" r="2" fill="#a5b4fc"/>
</svg>
